HIERARCHY
ROOT Pelvis
{
	OFFSET 0.000000 0.000000 0.000000
	CHANNELS 6 Xposition Yposition Zposition Xrotation Yrotation Zrotation
	JOINT LeftUpLeg_virtual
	{
		OFFSET 0.000000 0.000000 0.000000
		CHANNELS 3 Xrotation Yrotation Zrotation
		JOINT LeftUpLeg
		{
			OFFSET 18.735201 -5.666702 -4.541200
			CHANNELS 3 Xrotation Yrotation Zrotation
			JOINT LeftLeg
			{
				OFFSET -0.021200 -31.938179 0.493100
				CHANNELS 3 Xrotation Yrotation Zrotation
				JOINT LeftFoot
				{
					OFFSET 0.021200 -31.938179 -4.336299
					CHANNELS 3 Xrotation Yrotation Zrotation
					JOINT LeftToeBase
					{
						OFFSET 0.943001 -26.722000 15.023500
						CHANNELS 3 Xrotation Yrotation Zrotation
						End Site
						{
							OFFSET 0 0 0
						}
					}
				}
			}
		}
	}
	JOINT RightUpLeg_virtual
	{
		OFFSET 0.000000 0.000000 0.000000
		CHANNELS 3 Xrotation Yrotation Zrotation
		JOINT RightUpLeg
		{
			OFFSET -18.735201 -5.666702 -4.541200
			CHANNELS 3 Xrotation Yrotation Zrotation
			JOINT RightLeg
			{
				OFFSET 0.018946 -31.938133 0.493100
				CHANNELS 3 Xrotation Yrotation Zrotation
				JOINT RightFoot
				{
					OFFSET -0.018946 -31.938126 -4.336299
					CHANNELS 3 Xrotation Yrotation Zrotation
					JOINT RightToeBase
					{
						OFFSET -0.943001 -26.722004 15.023500
						CHANNELS 3 Xrotation Yrotation Zrotation
						End Site
						{
							OFFSET 0 0 0
						}
					}
				}
			}
		}
	}
	JOINT Hips_virtual
	{
		OFFSET 0.000000 0.000000 0.000000
		CHANNELS 3 Xrotation Yrotation Zrotation
		JOINT Hips
		{
			OFFSET -0.000000 -0.000000 -0.000000
			CHANNELS 3 Xrotation Yrotation Zrotation
			JOINT Spine
			{
				OFFSET 0.000000 10.199997 -0.299500
				CHANNELS 3 Xrotation Yrotation Zrotation
				JOINT Spine1
				{
					OFFSET 0.000000 11.900002 -1.516600
					CHANNELS 3 Xrotation Yrotation Zrotation
					JOINT Spine2
					{
						OFFSET 0.000000 13.600006 -2.842500
						CHANNELS 3 Xrotation Yrotation Zrotation
						JOINT Neck_virtual
						{
							OFFSET 0.000000 0.000000 0.000000
							CHANNELS 3 Xrotation Yrotation Zrotation
							JOINT Neck
							{
								OFFSET 0.000000 9.624100 -2.890100
								CHANNELS 3 Xrotation Yrotation Zrotation
								JOINT Head
								{
									OFFSET 0.000000 14.068802 -1.351900
									CHANNELS 3 Xrotation Yrotation Zrotation
									End Site
									{
										OFFSET 0 0 0
									}
								}
							}
						}
						JOINT LeftShoulder_virtual
						{
							OFFSET 0.000000 0.000000 0.000000
							CHANNELS 3 Xrotation Yrotation Zrotation
							JOINT LeftShoulder
							{
								OFFSET 15.263000 10.923401 -0.547700
								CHANNELS 3 Xrotation Yrotation Zrotation
								JOINT LeftArm
								{
									OFFSET 25.438599 -2.830597 -13.032500
									CHANNELS 3 Xrotation Yrotation Zrotation
									JOINT LeftForeArm
									{
										OFFSET 29.960503 0.000000 0.000000
										CHANNELS 3 Xrotation Yrotation Zrotation
										JOINT LeftHand
										{
											OFFSET 27.849251 0.000000 0.000000
											CHANNELS 3 Xrotation Yrotation Zrotation
											End Site
											{
												OFFSET 0 0 0
											}
										}
									}
								}
							}
						}
						JOINT RightShoulder_virtual
						{
							OFFSET 0.000000 0.000000 0.000000
							CHANNELS 3 Xrotation Yrotation Zrotation
							JOINT RightShoulder
							{
								OFFSET -15.263000 10.923401 -0.547700
								CHANNELS 3 Xrotation Yrotation Zrotation
								JOINT RightArm
								{
									OFFSET -25.438599 -2.830597 -13.032500
									CHANNELS 3 Xrotation Yrotation Zrotation
									JOINT RightForeArm
									{
										OFFSET -29.960503 0.000000 0.000000
										CHANNELS 3 Xrotation Yrotation Zrotation
										JOINT RightHand
										{
											OFFSET -27.849251 0.000000 0.000000
											CHANNELS 3 Xrotation Yrotation Zrotation
											End Site
											{
												OFFSET 0 0 0
											}
										}
									}
								}
							}
						}
					}
				}
			}
		}
	}
}
MOTION
Frames: 11
Frame Time: 0.03333333
8.810596 89.241302 111.681992 0.000000 0.000000 0.000000 23.884787 24.454145 -7.406218 -47.077817 7.395932 11.982945 48.787242 8.854935 -5.472686 -2.494357 29.063442 -4.456555 0.000000 0.000000 0.000000 23.884787 24.454145 -7.406218 -55.321725 -3.669464 -5.652376 39.492700 -6.924864 -4.933083 -4.612256 -6.674929 5.950223 0.000000 0.000000 0.000000 23.884787 24.454145 -7.406218 0.000000 0.000001 0.000000 11.223218 -0.881946 2.107155 6.689006 -2.739663 0.561831 0.000000 0.000000 0.000000 6.767272 -2.647714 0.806089 -2.835732 0.311525 1.299949 0.000000 0.000000 0.000000 6.767272 -2.647714 0.806089 1.518830 -7.209067 -6.123051 -29.320902 -21.015993 -35.448463 0.000000 -29.544953 -0.000005 0.000000 0.000000 0.000000 6.767272 -2.647714 0.806089 2.382972 6.831230 2.707432 -16.474830 -9.604024 53.071588 -0.000021 62.536577 0.000019 0.000000 0.000000 0.000000 
9.402966 91.144699 114.749634 0.000000 0.000000 0.000000 24.252390 26.167812 -8.012369 -47.440752 7.476674 10.430754 42.350585 9.514506 -5.643238 0.338381 30.180304 -6.662041 0.000000 0.000000 0.000000 24.252390 26.167812 -8.012369 -48.564134 -4.632522 -5.103517 33.446501 -6.720467 -5.008409 -5.348138 -8.507685 5.638042 0.000000 0.000000 0.000000 24.252390 26.167812 -8.012369 0.000002 0.000000 0.000000 10.740808 0.070019 2.049087 6.787113 -2.287294 0.523223 0.000000 0.000000 0.000000 6.856948 -2.249065 0.744094 -2.462725 0.058088 0.968937 0.000000 0.000000 0.000000 6.856948 -2.249065 0.744094 1.618577 -6.835511 -6.264190 -26.441477 -21.915698 -35.489629 -0.000002 -27.829500 -0.000024 0.000000 0.000000 0.000000 6.856948 -2.249065 0.744094 2.446338 6.435831 2.980739 -17.981417 -11.167561 54.420598 0.000015 66.639519 -0.000028 0.000000 0.000000 0.000000 
10.071406 92.092972 117.469620 0.000000 0.000000 0.000000 24.381716 28.045494 -8.829151 -48.278653 7.139302 10.391271 36.372871 8.997535 -5.777633 6.449124 30.203288 -12.179923 0.000000 0.000000 0.000000 24.381716 28.045494 -8.829151 -43.323200 -6.070341 -4.600706 30.094514 -6.243756 -5.012755 -7.011432 -10.276890 5.332408 0.000000 0.000000 0.000000 24.381716 28.045494 -8.829151 0.000002 0.000000 0.000001 10.201133 1.143434 2.114346 6.872408 -1.748173 0.478846 0.000000 0.000000 0.000000 6.935700 -1.762648 0.687620 -2.291428 -0.248561 0.582541 0.000000 0.000000 0.000000 6.935700 -1.762648 0.687620 1.650702 -6.391018 -6.371706 -23.539748 -22.127410 -35.245443 0.000004 -27.532733 0.000010 0.000000 0.000000 0.000000 6.935700 -1.762648 0.687620 2.521230 6.103415 3.214547 -19.050583 -12.399773 55.928639 0.000031 71.237432 -0.000016 0.000000 0.000000 0.000000 
10.496566 92.281784 120.129402 0.000000 0.000000 0.000000 24.352085 30.039124 -9.733098 -49.995462 6.999892 10.348516 33.925437 8.688363 -6.027975 6.750839 30.301786 -13.878729 0.000000 0.000000 0.000000 24.352085 30.039124 -9.733098 -39.422448 -7.272669 -3.679856 29.514081 -5.577290 -4.840147 -9.928382 -12.664287 4.664612 0.000000 0.000000 0.000000 24.352085 30.039124 -9.733098 0.000000 -0.000002 0.000001 9.614897 2.114218 2.322812 6.938819 -1.200941 0.394682 0.000000 0.000000 0.000000 6.995880 -1.243774 0.556804 -2.337988 -0.518399 0.147254 0.000000 0.000000 0.000000 6.995880 -1.243774 0.556804 1.600666 -5.900227 -6.378134 -20.631024 -20.820196 -34.468437 -0.000008 -31.483091 -0.000010 0.000000 0.000000 0.000000 6.995880 -1.243774 0.556804 2.569329 6.276834 3.284422 -19.444157 -12.478116 57.433059 0.000021 75.730160 0.000007 0.000000 0.000000 0.000000 
10.828593 91.329239 122.681030 0.000000 0.000000 0.000000 24.256459 31.990178 -10.770711 -53.357161 6.859381 10.412403 35.439905 8.479951 -6.155466 7.018848 30.309361 -14.444365 0.000000 0.000000 0.000000 24.256459 31.990178 -10.770711 -37.898688 -9.088974 -2.825448 33.574358 -4.636845 -4.662026 -15.212225 -14.789146 3.721130 0.000000 0.000000 0.000000 24.256459 31.990178 -10.770711 0.000001 0.000001 -0.000000 8.959655 3.180408 3.003663 6.979439 -0.616621 0.084972 0.000000 0.000000 0.000000 7.032314 -0.730680 0.218836 -2.439767 -0.889860 -0.245728 0.000000 0.000000 0.000000 7.032314 -0.730680 0.218836 1.483845 -5.195684 -6.244718 -18.327593 -18.394219 -33.141236 0.000004 -37.452058 0.000001 0.000000 0.000000 0.000000 7.032314 -0.730680 0.218836 2.615249 7.096793 3.014254 -19.595944 -12.189670 58.969217 0.000008 79.094574 0.000016 0.000000 0.000000 0.000000 
11.213554 89.475655 125.270309 0.000000 0.000000 0.000000 24.111720 33.844824 -11.859643 -57.643880 6.816024 10.269303 37.844272 8.180918 -6.116902 10.014101 30.158680 -13.702908 0.000000 0.000000 0.000000 24.111720 33.844824 -11.859643 -37.424410 -11.751436 -2.246082 40.238096 -3.831275 -4.594718 -22.123367 -15.936821 2.797616 0.000000 0.000000 0.000000 24.111720 33.844824 -11.859643 0.000000 0.000000 -0.000001 8.239882 4.303040 3.888713 6.995793 -0.036533 -0.580344 0.000000 0.000000 0.000000 7.044671 -0.308793 -0.427658 -2.518094 -1.281575 -0.519456 0.000000 0.000000 0.000000 7.044671 -0.308793 -0.427658 1.121503 -3.625874 -4.936485 -17.082170 -15.665075 -32.510751 -0.000003 -42.806114 -0.000001 0.000000 0.000000 0.000000 7.044671 -0.308793 -0.427658 2.650933 8.620938 2.214275 -19.495517 -12.310843 61.064432 -0.000029 82.024425 0.000018 0.000000 0.000000 0.000000 
11.862065 87.637680 127.937958 0.000000 0.000000 0.000000 23.825851 35.472031 -12.949852 -61.796061 7.782729 7.779985 39.133794 8.872546 -5.859613 10.107789 29.487054 -0.540843 0.000000 0.000000 0.000000 23.825851 35.472031 -12.949852 -35.592218 -14.851027 -1.734396 45.001415 -3.945215 -4.572894 -28.206246 -15.450287 2.663340 0.000000 0.000000 0.000000 23.825851 35.472031 -12.949852 0.000001 0.000001 -0.000000 7.550419 5.262422 4.053266 6.864473 0.543946 -1.180447 0.000000 0.000000 0.000000 6.926733 0.144407 -0.978545 -2.525862 -1.602592 -0.704730 0.000000 0.000000 0.000000 6.926733 0.144407 -0.978545 0.841876 -1.975010 -3.007317 -17.627386 -13.318442 -32.689162 -0.000013 -47.550701 -0.000011 0.000000 0.000000 0.000000 6.926733 0.144407 -0.978545 2.374402 10.253662 0.897354 -18.836702 -12.716476 63.971135 0.000019 83.769859 -0.000039 0.000000 0.000000 0.000000 
12.744326 87.104393 131.083588 0.000000 0.000000 0.000000 23.442719 37.057782 -13.755886 -62.065376 8.079488 7.111888 38.681523 8.076831 -6.013115 8.734415 28.924287 3.366967 0.000000 0.000000 0.000000 23.442719 37.057782 -13.755886 -29.945315 -16.290490 0.317654 43.270235 -4.655260 -4.506054 -31.256329 -15.688799 2.553197 0.000000 0.000000 0.000000 23.442719 37.057782 -13.755886 0.000000 -0.000001 0.000000 6.674375 5.808334 3.232008 6.096692 1.128911 -1.303470 0.000000 0.000000 0.000000 6.174804 0.754318 -1.021004 -2.491135 -1.788201 -0.882267 0.000000 0.000000 0.000000 6.174804 0.754318 -1.021004 0.567413 -0.837745 -1.991333 -18.542980 -11.552260 -33.114813 0.000013 -51.491317 0.000016 0.000000 0.000000 0.000000 6.174804 0.754318 -1.021004 1.875332 11.077959 -0.062377 -17.625790 -12.957438 66.546950 -0.000136 84.321076 0.000149 0.000000 0.000000 0.000000 
14.310237 87.472031 135.394653 0.000000 0.000000 0.000000 23.061435 38.770169 -14.449223 -60.843011 7.979180 7.459588 39.054168 7.384647 -6.228769 7.887134 27.035338 3.581092 0.000000 0.000000 0.000000 23.061435 38.770169 -14.449223 -22.902808 -17.188564 2.584705 38.988854 -5.045138 -4.455638 -30.445838 -15.782907 3.027617 0.000000 0.000000 0.000000 23.061435 38.770169 -14.449223 -0.000000 -0.000001 -0.000001 5.786745 5.670575 1.542852 5.160324 1.679315 -0.994104 0.000000 0.000000 0.000000 5.195025 1.438991 -0.803117 -2.291403 -1.924736 -1.209223 0.000000 0.000000 0.000000 5.195025 1.438991 -0.803117 0.516773 -1.004917 -1.393362 -19.025528 -11.105767 -33.376764 0.000004 -56.206556 0.000001 0.000000 0.000000 0.000000 5.195025 1.438991 -0.803117 1.296832 10.802958 -0.126126 -15.613597 -13.072518 68.054898 -0.000278 84.633632 0.000261 0.000000 0.000000 0.000000 
16.439354 88.327042 140.030777 0.000000 0.000000 0.000000 22.859871 40.639653 -15.234843 -58.413478 7.516178 8.748978 41.360692 7.402980 -6.331786 5.856842 24.441277 1.585665 0.000000 0.000000 0.000000 22.859871 40.639653 -15.234843 -18.104992 -17.904132 3.484740 36.557611 -3.344127 -4.474982 -25.655137 -16.535003 4.637149 0.000000 0.000000 0.000000 22.859871 40.639653 -15.234843 0.000000 0.000000 0.000000 4.962818 4.691100 -0.317048 4.228350 2.117032 -0.704703 0.000000 0.000000 0.000000 4.196326 2.130819 -0.700571 -2.230910 -2.044078 -1.622108 0.000000 0.000000 0.000000 4.196326 2.130819 -0.700571 0.451055 -2.131948 -0.933355 -18.049154 -13.189060 -32.913428 -0.000007 -60.961720 -0.000013 0.000000 0.000000 0.000000 4.196326 2.130819 -0.700571 1.124078 9.698820 0.254179 -13.587709 -12.457066 69.023747 0.000149 84.633666 -0.000152 0.000000 0.000000 0.000000 
18.407001 89.224907 144.144775 0.000000 0.000000 0.000000 22.703487 42.407664 -16.035291 -54.776703 6.922862 10.342836 42.514284 7.944630 -6.469608 2.945702 20.972547 -0.417398 0.000000 0.000000 0.000000 22.703487 42.407664 -16.035291 -16.562673 -18.519040 3.185518 36.496662 -0.309279 -4.536081 -18.700153 -17.078007 6.522446 0.000000 0.000000 0.000000 22.703487 42.407664 -16.035291 0.000001 0.000001 -0.000001 4.253144 3.378467 -1.089360 3.491064 2.289645 -0.959733 0.000000 0.000000 0.000000 3.421487 2.409802 -0.932144 -2.108544 -2.046450 -1.683549 0.000000 0.000000 0.000000 3.421487 2.409802 -0.932144 0.451914 -3.587171 -0.546699 -17.235414 -15.525177 -31.530349 0.000004 -64.420951 -0.000006 0.000000 0.000000 0.000000 3.421487 2.409802 -0.932144 1.483214 8.086957 0.818949 -11.297007 -11.214552 69.711656 -0.000304 84.351634 0.000276 0.000000 0.000000 0.000000 
